solid OpenSCAD_Model
  facet normal 0.994522 0.104528 0
    outer loop
      vertex 38 0 10
      vertex 37.1696 7.90064 0
      vertex 37.1696 7.90064 10
    endloop
  endfacet
  facet normal 0.994522 0.104528 0
    outer loop
      vertex 37.1696 7.90064 0
      vertex 38 0 10
      vertex 38 0 0
    endloop
  endfacet
  facet normal -0.994522 0.104528 0
    outer loop
      vertex -38 0 0
      vertex -37.1696 7.90064 10
      vertex -37.1696 7.90064 0
    endloop
  endfacet
  facet normal -0.994522 0.104528 0
    outer loop
      vertex -37.1696 7.90064 10
      vertex -38 0 0
      vertex -38 0 10
    endloop
  endfacet
  facet normal 0 1 -0
    outer loop
      vertex 3.97208 37.7918 0
      vertex -3.97208 37.7918 10
      vertex 3.97208 37.7918 10
    endloop
  endfacet
  facet normal 0 1 0
    outer loop
      vertex -3.97208 37.7918 10
      vertex 3.97208 37.7918 0
      vertex -3.97208 37.7918 0
    endloop
  endfacet
  facet normal 0.587785 0.809017 -0
    outer loop
      vertex 25.427 28.2395 0
      vertex 19 32.909 10
      vertex 25.427 28.2395 10
    endloop
  endfacet
  facet normal 0.587785 0.809017 0
    outer loop
      vertex 19 32.909 10
      vertex 25.427 28.2395 0
      vertex 19 32.909 0
    endloop
  endfacet
  facet normal -0.587785 0.809017 0
    outer loop
      vertex -19 32.909 0
      vertex -25.427 28.2395 10
      vertex -19 32.909 10
    endloop
  endfacet
  facet normal -0.587785 0.809017 0
    outer loop
      vertex -25.427 28.2395 10
      vertex -19 32.909 0
      vertex -25.427 28.2395 0
    endloop
  endfacet
  facet normal -0.406737 0.913545 0
    outer loop
      vertex -11.7426 36.1401 0
      vertex -19 32.909 10
      vertex -11.7426 36.1401 10
    endloop
  endfacet
  facet normal -0.406737 0.913545 0
    outer loop
      vertex -19 32.909 10
      vertex -11.7426 36.1401 0
      vertex -19 32.909 0
    endloop
  endfacet
  facet normal 0.866025 0.5 0
    outer loop
      vertex 34.7147 15.456 10
      vertex 30.7426 22.3358 0
      vertex 30.7426 22.3358 10
    endloop
  endfacet
  facet normal 0.866025 0.5 0
    outer loop
      vertex 30.7426 22.3358 0
      vertex 34.7147 15.456 10
      vertex 34.7147 15.456 0
    endloop
  endfacet
  facet normal 0.951056 0.309017 0
    outer loop
      vertex 37.1696 7.90064 10
      vertex 34.7147 15.456 0
      vertex 34.7147 15.456 10
    endloop
  endfacet
  facet normal 0.951056 0.309017 0
    outer loop
      vertex 34.7147 15.456 0
      vertex 37.1696 7.90064 10
      vertex 37.1696 7.90064 0
    endloop
  endfacet
  facet normal 0.743145 0.669131 0
    outer loop
      vertex 30.7426 22.3358 10
      vertex 25.427 28.2395 0
      vertex 25.427 28.2395 10
    endloop
  endfacet
  facet normal 0.743145 0.669131 0
    outer loop
      vertex 25.427 28.2395 0
      vertex 30.7426 22.3358 10
      vertex 30.7426 22.3358 0
    endloop
  endfacet
  facet normal 0.207912 0.978148 -0
    outer loop
      vertex 11.7426 36.1401 0
      vertex 3.97208 37.7918 10
      vertex 11.7426 36.1401 10
    endloop
  endfacet
  facet normal 0.207912 0.978148 0
    outer loop
      vertex 3.97208 37.7918 10
      vertex 11.7426 36.1401 0
      vertex 3.97208 37.7918 0
    endloop
  endfacet
  facet normal 0.406737 0.913545 -0
    outer loop
      vertex 19 32.909 0
      vertex 11.7426 36.1401 10
      vertex 19 32.909 10
    endloop
  endfacet
  facet normal 0.406737 0.913545 0
    outer loop
      vertex 11.7426 36.1401 10
      vertex 19 32.909 0
      vertex 11.7426 36.1401 0
    endloop
  endfacet
  facet normal -0.866025 0.5 0
    outer loop
      vertex -34.7147 15.456 0
      vertex -30.7426 22.3358 10
      vertex -30.7426 22.3358 0
    endloop
  endfacet
  facet normal -0.866025 0.5 0
    outer loop
      vertex -30.7426 22.3358 10
      vertex -34.7147 15.456 0
      vertex -34.7147 15.456 10
    endloop
  endfacet
  facet normal -0.743145 0.669131 0
    outer loop
      vertex -30.7426 22.3358 0
      vertex -25.427 28.2395 10
      vertex -25.427 28.2395 0
    endloop
  endfacet
  facet normal -0.743145 0.669131 0
    outer loop
      vertex -25.427 28.2395 10
      vertex -30.7426 22.3358 0
      vertex -30.7426 22.3358 10
    endloop
  endfacet
  facet normal -0.951056 0.309017 0
    outer loop
      vertex -37.1696 7.90064 0
      vertex -34.7147 15.456 10
      vertex -34.7147 15.456 0
    endloop
  endfacet
  facet normal -0.951056 0.309017 0
    outer loop
      vertex -34.7147 15.456 10
      vertex -37.1696 7.90064 0
      vertex -37.1696 7.90064 10
    endloop
  endfacet
  facet normal -0 0 1
    outer loop
      vertex -19 32.909 10
      vertex -12 32.7596 10
      vertex -11.7426 36.1401 10
    endloop
  endfacet
  facet normal 0 0 1
    outer loop
      vertex -12 32.7596 10
      vertex -19 32.909 10
      vertex -17.5 30.3109 10
    endloop
  endfacet
  facet normal 0 0 1
    outer loop
      vertex -19 32.909 10
      vertex -23.4196 26.0101 10
      vertex -17.5 30.3109 10
    endloop
  endfacet
  facet normal -0 0 1
    outer loop
      vertex -25.427 28.2395 10
      vertex -23.4196 26.0101 10
      vertex -19 32.909 10
    endloop
  endfacet
  facet normal 0 0 1
    outer loop
      vertex -25.427 28.2395 10
      vertex -28.3156 20.5725 10
      vertex -23.4196 26.0101 10
    endloop
  endfacet
  facet normal -0 0 1
    outer loop
      vertex -30.7426 22.3358 10
      vertex -28.3156 20.5725 10
      vertex -25.427 28.2395 10
    endloop
  endfacet
  facet normal 0 0 1
    outer loop
      vertex -30.7426 22.3358 10
      vertex -31.9741 14.2358 10
      vertex -28.3156 20.5725 10
    endloop
  endfacet
  facet normal -0 0 1
    outer loop
      vertex -34.7147 15.456 10
      vertex -31.9741 14.2358 10
      vertex -30.7426 22.3358 10
    endloop
  endfacet
  facet normal 0 0 1
    outer loop
      vertex -31.9741 14.2358 10
      vertex -34.7147 15.456 10
      vertex -34.2352 7.27691 10
    endloop
  endfacet
  facet normal -0 0 1
    outer loop
      vertex -37.1696 7.90064 10
      vertex -34.2352 7.27691 10
      vertex -34.7147 15.456 10
    endloop
  endfacet
  facet normal 0 0 1
    outer loop
      vertex -34.2352 7.27691 10
      vertex -37.1696 7.90064 10
      vertex -35 0 10
    endloop
  endfacet
  facet normal 0 0 1
    outer loop
      vertex -31.9741 -14.2358 10
      vertex -34.8629 -15 10
      vertex -31.5329 -15 10
    endloop
  endfacet
  facet normal 0 0 1
    outer loop
      vertex -34.2352 -7.27691 10
      vertex -34.8629 -15 10
      vertex -31.9741 -14.2358 10
    endloop
  endfacet
  facet normal 0 0 1
    outer loop
      vertex -37.1696 -7.90064 10
      vertex -34.2352 -7.27691 10
      vertex -35 0 10
    endloop
  endfacet
  facet normal 0 0 1
    outer loop
      vertex -38 0 10
      vertex -35 0 10
      vertex -37.1696 7.90064 10
    endloop
  endfacet
  facet normal 0 0 1
    outer loop
      vertex -34.2352 -7.27691 10
      vertex -37.1696 -7.90064 10
      vertex -34.8629 -15 10
    endloop
  endfacet
  facet normal 0 0 1
    outer loop
      vertex -35 0 10
      vertex -38 0 10
      vertex -37.1696 -7.90064 10
    endloop
  endfacet
  facet normal 0 0 1
    outer loop
      vertex 3.97208 37.7918 10
      vertex 10 33 10
      vertex 11.7426 36.1401 10
    endloop
  endfacet
  facet normal -0 0 1
    outer loop
      vertex -3.97208 37.7918 10
      vertex 10 33 10
      vertex 3.97208 37.7918 10
    endloop
  endfacet
  facet normal 0 0 1
    outer loop
      vertex -3.97208 37.7918 10
      vertex -10 33 10
      vertex 10 33 10
    endloop
  endfacet
  facet normal 0 0 1
    outer loop
      vertex -12 32.7596 10
      vertex -10 33 10
      vertex -11.7426 36.1401 10
    endloop
  endfacet
  facet normal -0 0 1
    outer loop
      vertex -11.7426 36.1401 10
      vertex -10 33 10
      vertex -3.97208 37.7918 10
    endloop
  endfacet
  facet normal 0 0 1
    outer loop
      vertex 35 0 10
      vertex 38 0 10
      vertex 37.1696 7.90064 10
    endloop
  endfacet
  facet normal 0 0 1
    outer loop
      vertex 38 0 10
      vertex 35 0 10
      vertex 37.1696 -7.90064 10
    endloop
  endfacet
  facet normal 0 0 1
    outer loop
      vertex 34.2352 7.27691 10
      vertex 37.1696 7.90064 10
      vertex 34.7147 15.456 10
    endloop
  endfacet
  facet normal 0 0 1
    outer loop
      vertex 37.1696 7.90064 10
      vertex 34.2352 7.27691 10
      vertex 35 0 10
    endloop
  endfacet
  facet normal 0 0 1
    outer loop
      vertex 34.7147 15.456 10
      vertex 31.9741 14.2358 10
      vertex 34.2352 7.27691 10
    endloop
  endfacet
  facet normal 0 0 1
    outer loop
      vertex 30.7426 22.3358 10
      vertex 31.9741 14.2358 10
      vertex 34.7147 15.456 10
    endloop
  endfacet
  facet normal 0 0 1
    outer loop
      vertex 30.7426 22.3358 10
      vertex 28.3156 20.5725 10
      vertex 31.9741 14.2358 10
    endloop
  endfacet
  facet normal 0 0 1
    outer loop
      vertex 25.427 28.2395 10
      vertex 28.3156 20.5725 10
      vertex 30.7426 22.3358 10
    endloop
  endfacet
  facet normal 0 0 1
    outer loop
      vertex 25.427 28.2395 10
      vertex 23.4196 26.0101 10
      vertex 28.3156 20.5725 10
    endloop
  endfacet
  facet normal 0 0 1
    outer loop
      vertex 19 32.909 10
      vertex 23.4196 26.0101 10
      vertex 25.427 28.2395 10
    endloop
  endfacet
  facet normal 0 0 1
    outer loop
      vertex 19 32.909 10
      vertex 17.5 30.3109 10
      vertex 23.4196 26.0101 10
    endloop
  endfacet
  facet normal 0 0 1
    outer loop
      vertex 19 32.909 10
      vertex 12 32.7596 10
      vertex 17.5 30.3109 10
    endloop
  endfacet
  facet normal 0 0 1
    outer loop
      vertex 11.7426 36.1401 10
      vertex 12 32.7596 10
      vertex 19 32.909 10
    endloop
  endfacet
  facet normal -0 0 1
    outer loop
      vertex 10 33 10
      vertex 12 32.7596 10
      vertex 11.7426 36.1401 10
    endloop
  endfacet
  facet normal 0 0 1
    outer loop
      vertex 10 13 10
      vertex 12 32.7596 10
      vertex 10 33 10
    endloop
  endfacet
  facet normal 0 0 1
    outer loop
      vertex 12 32.7596 10
      vertex 10 13 10
      vertex 12 11 10
    endloop
  endfacet
  facet normal -0 0 1
    outer loop
      vertex -10 13 10
      vertex 12 11 10
      vertex 10 13 10
    endloop
  endfacet
  facet normal 0 0 1
    outer loop
      vertex -10 33 10
      vertex -12 32.7596 10
      vertex -10 13 10
    endloop
  endfacet
  facet normal 0 0 1
    outer loop
      vertex -10 13 10
      vertex -12 11 10
      vertex 12 11 10
    endloop
  endfacet
  facet normal 0 0 1
    outer loop
      vertex -12 11 10
      vertex -10 13 10
      vertex -12 32.7596 10
    endloop
  endfacet
  facet normal -0 0 1
    outer loop
      vertex 34.2352 -7.27691 10
      vertex 37.1696 -7.90064 10
      vertex 35 0 10
    endloop
  endfacet
  facet normal 0 0 1
    outer loop
      vertex 37.1696 -7.90064 10
      vertex 34.2352 -7.27691 10
      vertex 34.8629 -15 10
    endloop
  endfacet
  facet normal -0 0 1
    outer loop
      vertex 31.9741 -14.2358 10
      vertex 34.8629 -15 10
      vertex 34.2352 -7.27691 10
    endloop
  endfacet
  facet normal 0 0 1
    outer loop
      vertex 34.8629 -15 10
      vertex 31.9741 -14.2358 10
      vertex 31.5329 -15 10
    endloop
  endfacet
  facet normal -0.207912 0.978148 0
    outer loop
      vertex -3.97208 37.7918 0
      vertex -11.7426 36.1401 10
      vertex -3.97208 37.7918 10
    endloop
  endfacet
  facet normal -0.207912 0.978148 0
    outer loop
      vertex -11.7426 36.1401 10
      vertex -3.97208 37.7918 0
      vertex -11.7426 36.1401 0
    endloop
  endfacet
  facet normal 0.994522 -0.104528 0
    outer loop
      vertex 37.1696 -7.90064 10
      vertex 38 0 0
      vertex 38 0 10
    endloop
  endfacet
  facet normal 0.994522 -0.104528 0
    outer loop
      vertex 38 0 0
      vertex 37.1696 -7.90064 10
      vertex 37.1696 -7.90064 0
    endloop
  endfacet
  facet normal 0 0 -1
    outer loop
      vertex -34.8629 -15 0
      vertex -31.9741 -14.2358 0
      vertex -31.5329 -15 0
    endloop
  endfacet
  facet normal 0 0 -1
    outer loop
      vertex -34.8629 -15 0
      vertex -34.2352 -7.27691 0
      vertex -31.9741 -14.2358 0
    endloop
  endfacet
  facet normal 0 0 -1
    outer loop
      vertex -37.1696 -7.90064 0
      vertex -34.2352 -7.27691 0
      vertex -34.8629 -15 0
    endloop
  endfacet
  facet normal -0 0 -1
    outer loop
      vertex -34.2352 -7.27691 0
      vertex -37.1696 -7.90064 0
      vertex -35 0 0
    endloop
  endfacet
  facet normal 0 0 -1
    outer loop
      vertex -35 0 0
      vertex -38 0 0
      vertex -35.5 5 0
    endloop
  endfacet
  facet normal 0 0 -1
    outer loop
      vertex -38 0 0
      vertex -35 0 0
      vertex -37.1696 -7.90064 0
    endloop
  endfacet
  facet normal -0 0 -1
    outer loop
      vertex -34.4745 5 0
      vertex -35 0 0
      vertex -35.5 5 0
    endloop
  endfacet
  facet normal 0 0 -1
    outer loop
      vertex 10 13 0
      vertex 12 32.7596 0
      vertex 12 11 0
    endloop
  endfacet
  facet normal -0 0 -1
    outer loop
      vertex 12 32.7596 0
      vertex 10 13 0
      vertex 10 33 0
    endloop
  endfacet
  facet normal 0 0 -1
    outer loop
      vertex 1 11 0
      vertex 10 13 0
      vertex 12 11 0
    endloop
  endfacet
  facet normal 0 0 -1
    outer loop
      vertex -1 11 0
      vertex 10 13 0
      vertex 1 11 0
    endloop
  endfacet
  facet normal 0 0 -1
    outer loop
      vertex -1 11 0
      vertex -10 13 0
      vertex 10 13 0
    endloop
  endfacet
  facet normal 0 0 -1
    outer loop
      vertex -12 32.7596 0
      vertex -10 33 0
      vertex -10 13 0
    endloop
  endfacet
  facet normal 0 0 -1
    outer loop
      vertex -12 11 0
      vertex -10 13 0
      vertex -1 11 0
    endloop
  endfacet
  facet normal 0 0 -1
    outer loop
      vertex -12 32.7596 0
      vertex -10 13 0
      vertex -12 11 0
    endloop
  endfacet
  facet normal -0 0 -1
    outer loop
      vertex -10 33 0
      vertex -12 32.7596 0
      vertex -11.7426 36.1401 0
    endloop
  endfacet
  facet normal 0 0 -1
    outer loop
      vertex -19 32.909 0
      vertex -12 32.7596 0
      vertex -17.5 30.3109 0
    endloop
  endfacet
  facet normal 0 0 -1
    outer loop
      vertex -12 32.7596 0
      vertex -19 32.909 0
      vertex -11.7426 36.1401 0
    endloop
  endfacet
  facet normal 0 0 -1
    outer loop
      vertex -23.4196 26.0101 0
      vertex -19 32.909 0
      vertex -17.5 30.3109 0
    endloop
  endfacet
  facet normal 0 0 -1
    outer loop
      vertex -23.4196 26.0101 0
      vertex -25.427 28.2395 0
      vertex -19 32.909 0
    endloop
  endfacet
  facet normal 0 0 -1
    outer loop
      vertex -28.3156 20.5725 0
      vertex -25.427 28.2395 0
      vertex -23.4196 26.0101 0
    endloop
  endfacet
  facet normal 0 0 -1
    outer loop
      vertex -28.3156 20.5725 0
      vertex -30.7426 22.3358 0
      vertex -25.427 28.2395 0
    endloop
  endfacet
  facet normal 0 0 -1
    outer loop
      vertex -31.9741 14.2358 0
      vertex -30.7426 22.3358 0
      vertex -28.3156 20.5725 0
    endloop
  endfacet
  facet normal 0 0 -1
    outer loop
      vertex -34.7147 15.456 0
      vertex -31.9741 14.2358 0
      vertex -34.2352 7.27691 0
    endloop
  endfacet
  facet normal 0 0 -1
    outer loop
      vertex -31.9741 14.2358 0
      vertex -34.7147 15.456 0
      vertex -30.7426 22.3358 0
    endloop
  endfacet
  facet normal 0 0 -1
    outer loop
      vertex -35.5 7 0
      vertex -34.2352 7.27691 0
      vertex -34.2643 7 0
    endloop
  endfacet
  facet normal -0 0 -1
    outer loop
      vertex -34.2352 7.27691 0
      vertex -35.5 7 0
      vertex -37.1696 7.90064 0
    endloop
  endfacet
  facet normal 0 -0 -1
    outer loop
      vertex -37.1696 7.90064 0
      vertex -35.5 5 0
      vertex -38 0 0
    endloop
  endfacet
  facet normal 0 0 -1
    outer loop
      vertex -34.2352 7.27691 0
      vertex -37.1696 7.90064 0
      vertex -34.7147 15.456 0
    endloop
  endfacet
  facet normal 0 0 -1
    outer loop
      vertex -35.5 5 0
      vertex -37.1696 7.90064 0
      vertex -35.5 7 0
    endloop
  endfacet
  facet normal 0 0 -1
    outer loop
      vertex 35 0 0
      vertex 38 0 0
      vertex 37.1696 -7.90064 0
    endloop
  endfacet
  facet normal 0 -0 -1
    outer loop
      vertex 35.5 5 0
      vertex 38 0 0
      vertex 35 0 0
    endloop
  endfacet
  facet normal 0 0 -1
    outer loop
      vertex 38 0 0
      vertex 35.5 5 0
      vertex 37.1696 7.90064 0
    endloop
  endfacet
  facet normal 0 0 -1
    outer loop
      vertex 34.2352 -7.27691 0
      vertex 37.1696 -7.90064 0
      vertex 34.8629 -15 0
    endloop
  endfacet
  facet normal 0 0 -1
    outer loop
      vertex 37.1696 -7.90064 0
      vertex 34.2352 -7.27691 0
      vertex 35 0 0
    endloop
  endfacet
  facet normal 0 0 -1
    outer loop
      vertex 34.8629 -15 0
      vertex 31.9741 -14.2358 0
      vertex 34.2352 -7.27691 0
    endloop
  endfacet
  facet normal 0 -0 -1
    outer loop
      vertex 31.9741 -14.2358 0
      vertex 34.8629 -15 0
      vertex 31.5329 -15 0
    endloop
  endfacet
  facet normal 0 0 -1
    outer loop
      vertex 35.5 7 0
      vertex 37.1696 7.90064 0
      vertex 35.5 5 0
    endloop
  endfacet
  facet normal 0 0 -1
    outer loop
      vertex 34.2352 7.27691 0
      vertex 37.1696 7.90064 0
      vertex 35.5 7 0
    endloop
  endfacet
  facet normal 0 0 -1
    outer loop
      vertex 34.2352 7.27691 0
      vertex 35.5 7 0
      vertex 34.2643 7 0
    endloop
  endfacet
  facet normal -0 0 -1
    outer loop
      vertex 37.1696 7.90064 0
      vertex 34.2352 7.27691 0
      vertex 34.7147 15.456 0
    endloop
  endfacet
  facet normal 0 0 -1
    outer loop
      vertex 31.9741 14.2358 0
      vertex 34.7147 15.456 0
      vertex 34.2352 7.27691 0
    endloop
  endfacet
  facet normal 0 0 -1
    outer loop
      vertex 31.9741 14.2358 0
      vertex 30.7426 22.3358 0
      vertex 34.7147 15.456 0
    endloop
  endfacet
  facet normal 0 0 -1
    outer loop
      vertex 28.3156 20.5725 0
      vertex 30.7426 22.3358 0
      vertex 31.9741 14.2358 0
    endloop
  endfacet
  facet normal 0 0 -1
    outer loop
      vertex 28.3156 20.5725 0
      vertex 25.427 28.2395 0
      vertex 30.7426 22.3358 0
    endloop
  endfacet
  facet normal 0 0 -1
    outer loop
      vertex 23.4196 26.0101 0
      vertex 25.427 28.2395 0
      vertex 28.3156 20.5725 0
    endloop
  endfacet
  facet normal 0 0 -1
    outer loop
      vertex 23.4196 26.0101 0
      vertex 19 32.909 0
      vertex 25.427 28.2395 0
    endloop
  endfacet
  facet normal 0 0 -1
    outer loop
      vertex 17.5 30.3109 0
      vertex 19 32.909 0
      vertex 23.4196 26.0101 0
    endloop
  endfacet
  facet normal 0 0 -1
    outer loop
      vertex 12 32.7596 0
      vertex 19 32.909 0
      vertex 17.5 30.3109 0
    endloop
  endfacet
  facet normal -0 0 -1
    outer loop
      vertex 19 32.909 0
      vertex 12 32.7596 0
      vertex 11.7426 36.1401 0
    endloop
  endfacet
  facet normal -0 0 -1
    outer loop
      vertex 35.5 5 0
      vertex 35 0 0
      vertex 34.4745 5 0
    endloop
  endfacet
  facet normal 0 0 -1
    outer loop
      vertex 12 32.7596 0
      vertex 10 33 0
      vertex 11.7426 36.1401 0
    endloop
  endfacet
  facet normal 0 0 -1
    outer loop
      vertex 10 33 0
      vertex 3.97208 37.7918 0
      vertex 11.7426 36.1401 0
    endloop
  endfacet
  facet normal 0 0 -1
    outer loop
      vertex 10 33 0
      vertex -3.97208 37.7918 0
      vertex 3.97208 37.7918 0
    endloop
  endfacet
  facet normal 0 0 -1
    outer loop
      vertex -10 33 0
      vertex -3.97208 37.7918 0
      vertex 10 33 0
    endloop
  endfacet
  facet normal 0 0 -1
    outer loop
      vertex -3.97208 37.7918 0
      vertex -10 33 0
      vertex -11.7426 36.1401 0
    endloop
  endfacet
  facet normal 0.951057 -0.309017 0
    outer loop
      vertex 34.8629 -15 10
      vertex 37.1696 -7.90064 0
      vertex 37.1696 -7.90064 10
    endloop
  endfacet
  facet normal 0.951057 -0.309017 0
    outer loop
      vertex 37.1696 -7.90064 0
      vertex 34.8629 -15 10
      vertex 34.8629 -15 0
    endloop
  endfacet
  facet normal -0.951057 -0.309017 0
    outer loop
      vertex -34.8629 -15 0
      vertex -37.1696 -7.90064 10
      vertex -37.1696 -7.90064 0
    endloop
  endfacet
  facet normal -0.951057 -0.309017 0
    outer loop
      vertex -37.1696 -7.90064 10
      vertex -34.8629 -15 0
      vertex -34.8629 -15 10
    endloop
  endfacet
  facet normal -0.994522 -0.104528 0
    outer loop
      vertex -37.1696 -7.90064 0
      vertex -38 0 10
      vertex -38 0 0
    endloop
  endfacet
  facet normal -0.994522 -0.104528 0
    outer loop
      vertex -38 0 10
      vertex -37.1696 -7.90064 0
      vertex -37.1696 -7.90064 10
    endloop
  endfacet
  facet normal -0.866025 -0.5 0
    outer loop
      vertex 31.9741 14.2358 0
      vertex 28.3156 20.5725 10
      vertex 28.3156 20.5725 0
    endloop
  endfacet
  facet normal -0.866025 -0.5 0
    outer loop
      vertex 28.3156 20.5725 10
      vertex 31.9741 14.2358 0
      vertex 31.9741 14.2358 10
    endloop
  endfacet
  facet normal 0.994521 -0.104535 0
    outer loop
      vertex -34.2352 7.27691 10
      vertex -34.2643 7 9
      vertex -34.2352 7.27691 0
    endloop
  endfacet
  facet normal 0.994522 -0.104529 -1.77639e-06
    outer loop
      vertex -34.2352 7.27691 10
      vertex -34.4745 5 9
      vertex -34.2643 7 9
    endloop
  endfacet
  facet normal 0.994522 -0.104529 -1.8141e-06
    outer loop
      vertex -35 0 10
      vertex -34.4745 5 9
      vertex -34.2352 7.27691 10
    endloop
  endfacet
  facet normal 0.994522 -0.104528 0
    outer loop
      vertex -35 0 0
      vertex -34.4745 5 9
      vertex -35 0 10
    endloop
  endfacet
  facet normal 0.994522 -0.104528 0
    outer loop
      vertex -34.4745 5 9
      vertex -35 0 0
      vertex -34.4745 5 0
    endloop
  endfacet
  facet normal 0.994521 -0.104535 0
    outer loop
      vertex -34.2352 7.27691 0
      vertex -34.2643 7 9
      vertex -34.2643 7 0
    endloop
  endfacet
  facet normal 0.866026 0.5 0
    outer loop
      vertex -31.5329 -15 10
      vertex -31.9741 -14.2358 0
      vertex -31.9741 -14.2358 10
    endloop
  endfacet
  facet normal 0.866026 0.5 0
    outer loop
      vertex -31.9741 -14.2358 0
      vertex -31.5329 -15 10
      vertex -31.5329 -15 0
    endloop
  endfacet
  facet normal -0.743145 -0.669131 0
    outer loop
      vertex 28.3156 20.5725 0
      vertex 23.4196 26.0101 10
      vertex 23.4196 26.0101 0
    endloop
  endfacet
  facet normal -0.743145 -0.669131 0
    outer loop
      vertex 23.4196 26.0101 10
      vertex 28.3156 20.5725 0
      vertex 28.3156 20.5725 10
    endloop
  endfacet
  facet normal -0.406737 -0.913545 0
    outer loop
      vertex 12 32.7596 0
      vertex 17.5 30.3109 10
      vertex 12 32.7596 10
    endloop
  endfacet
  facet normal -0.406737 -0.913545 -0
    outer loop
      vertex 17.5 30.3109 10
      vertex 12 32.7596 0
      vertex 17.5 30.3109 0
    endloop
  endfacet
  facet normal 0.406737 -0.913545 0
    outer loop
      vertex -17.5 30.3109 0
      vertex -12 32.7596 10
      vertex -17.5 30.3109 10
    endloop
  endfacet
  facet normal 0.406737 -0.913545 0
    outer loop
      vertex -12 32.7596 10
      vertex -17.5 30.3109 0
      vertex -12 32.7596 0
    endloop
  endfacet
  facet normal 0.951057 -0.309017 0
    outer loop
      vertex -34.2352 7.27691 10
      vertex -31.9741 14.2358 0
      vertex -31.9741 14.2358 10
    endloop
  endfacet
  facet normal 0.951057 -0.309017 0
    outer loop
      vertex -31.9741 14.2358 0
      vertex -34.2352 7.27691 10
      vertex -34.2352 7.27691 0
    endloop
  endfacet
  facet normal -0.994522 0.104529 0
    outer loop
      vertex 34.2352 -7.27691 0
      vertex 35 0 10
      vertex 35 0 0
    endloop
  endfacet
  facet normal -0.994522 0.104529 0
    outer loop
      vertex 35 0 10
      vertex 34.2352 -7.27691 0
      vertex 34.2352 -7.27691 10
    endloop
  endfacet
  facet normal -0.587785 -0.809017 0
    outer loop
      vertex 17.5 30.3109 0
      vertex 23.4196 26.0101 10
      vertex 17.5 30.3109 10
    endloop
  endfacet
  facet normal -0.587785 -0.809017 -0
    outer loop
      vertex 23.4196 26.0101 10
      vertex 17.5 30.3109 0
      vertex 23.4196 26.0101 0
    endloop
  endfacet
  facet normal 0.866025 -0.5 0
    outer loop
      vertex -31.9741 14.2358 10
      vertex -28.3156 20.5725 0
      vertex -28.3156 20.5725 10
    endloop
  endfacet
  facet normal 0.866025 -0.5 0
    outer loop
      vertex -28.3156 20.5725 0
      vertex -31.9741 14.2358 10
      vertex -31.9741 14.2358 0
    endloop
  endfacet
  facet normal 0.587785 -0.809017 0
    outer loop
      vertex -23.4196 26.0101 0
      vertex -17.5 30.3109 10
      vertex -23.4196 26.0101 10
    endloop
  endfacet
  facet normal 0.587785 -0.809017 0
    outer loop
      vertex -17.5 30.3109 10
      vertex -23.4196 26.0101 0
      vertex -17.5 30.3109 0
    endloop
  endfacet
  facet normal 0.743145 -0.669131 0
    outer loop
      vertex -28.3156 20.5725 10
      vertex -23.4196 26.0101 0
      vertex -23.4196 26.0101 10
    endloop
  endfacet
  facet normal 0.743145 -0.669131 0
    outer loop
      vertex -23.4196 26.0101 0
      vertex -28.3156 20.5725 10
      vertex -28.3156 20.5725 0
    endloop
  endfacet
  facet normal -0.994522 -0.104528 0
    outer loop
      vertex 34.4745 5 0
      vertex 35 0 0
      vertex 34.4745 5 9
    endloop
  endfacet
  facet normal -0.994521 -0.104535 -0
    outer loop
      vertex 34.2643 7 9
      vertex 34.2352 7.27691 0
      vertex 34.2643 7 0
    endloop
  endfacet
  facet normal -0.994521 -0.104535 0
    outer loop
      vertex 34.2352 7.27691 0
      vertex 34.2643 7 9
      vertex 34.2352 7.27691 10
    endloop
  endfacet
  facet normal -0.994522 -0.104529 -1.77639e-06
    outer loop
      vertex 34.4745 5 9
      vertex 34.2352 7.27691 10
      vertex 34.2643 7 9
    endloop
  endfacet
  facet normal -0.994522 -0.104529 -1.8141e-06
    outer loop
      vertex 34.4745 5 9
      vertex 35 0 10
      vertex 34.2352 7.27691 10
    endloop
  endfacet
  facet normal -0.994522 -0.104528 -0
    outer loop
      vertex 35 0 10
      vertex 34.4745 5 9
      vertex 35 0 0
    endloop
  endfacet
  facet normal 0.994522 0.104529 0
    outer loop
      vertex -34.2352 -7.27691 10
      vertex -35 0 0
      vertex -35 0 10
    endloop
  endfacet
  facet normal 0.994522 0.104529 0
    outer loop
      vertex -35 0 0
      vertex -34.2352 -7.27691 10
      vertex -34.2352 -7.27691 0
    endloop
  endfacet
  facet normal 0.951057 0.309017 0
    outer loop
      vertex -31.9741 -14.2358 10
      vertex -34.2352 -7.27691 0
      vertex -34.2352 -7.27691 10
    endloop
  endfacet
  facet normal 0.951057 0.309017 0
    outer loop
      vertex -34.2352 -7.27691 0
      vertex -31.9741 -14.2358 10
      vertex -31.9741 -14.2358 0
    endloop
  endfacet
  facet normal -0.951057 -0.309017 0
    outer loop
      vertex 34.2352 7.27691 0
      vertex 31.9741 14.2358 10
      vertex 31.9741 14.2358 0
    endloop
  endfacet
  facet normal -0.951057 -0.309017 0
    outer loop
      vertex 31.9741 14.2358 10
      vertex 34.2352 7.27691 0
      vertex 34.2352 7.27691 10
    endloop
  endfacet
  facet normal -0.951057 0.309017 0
    outer loop
      vertex 31.9741 -14.2358 0
      vertex 34.2352 -7.27691 10
      vertex 34.2352 -7.27691 0
    endloop
  endfacet
  facet normal -0.951057 0.309017 0
    outer loop
      vertex 34.2352 -7.27691 10
      vertex 31.9741 -14.2358 0
      vertex 31.9741 -14.2358 10
    endloop
  endfacet
  facet normal -0.866026 0.5 0
    outer loop
      vertex 31.5329 -15 0
      vertex 31.9741 -14.2358 10
      vertex 31.9741 -14.2358 0
    endloop
  endfacet
  facet normal -0.866026 0.5 0
    outer loop
      vertex 31.9741 -14.2358 10
      vertex 31.5329 -15 0
      vertex 31.5329 -15 10
    endloop
  endfacet
  facet normal -1 0 0
    outer loop
      vertex -12 11 0
      vertex -12 32.7596 10
      vertex -12 32.7596 0
    endloop
  endfacet
  facet normal -1 -0 0
    outer loop
      vertex -12 32.7596 10
      vertex -12 11 0
      vertex -12 11 10
    endloop
  endfacet
  facet normal 1 -0 0
    outer loop
      vertex 12 11 10
      vertex 12 32.7596 0
      vertex 12 32.7596 10
    endloop
  endfacet
  facet normal 1 0 0
    outer loop
      vertex 12 32.7596 0
      vertex 12 11 10
      vertex 12 11 0
    endloop
  endfacet
  facet normal 0 -1 0
    outer loop
      vertex -12 11 10
      vertex -1 11 9
      vertex 12 11 10
    endloop
  endfacet
  facet normal 0 -1 0
    outer loop
      vertex -12 11 0
      vertex -1 11 9
      vertex -12 11 10
    endloop
  endfacet
  facet normal 0 -1 -0
    outer loop
      vertex -1 11 9
      vertex -12 11 0
      vertex -1 11 0
    endloop
  endfacet
  facet normal 0 -1 0
    outer loop
      vertex 1 11 9
      vertex 12 11 10
      vertex -1 11 9
    endloop
  endfacet
  facet normal 0 -1 0
    outer loop
      vertex 12 11 0
      vertex 1 11 9
      vertex 1 11 0
    endloop
  endfacet
  facet normal 0 -1 0
    outer loop
      vertex 1 11 9
      vertex 12 11 0
      vertex 12 11 10
    endloop
  endfacet
  facet normal 0 1 -0
    outer loop
      vertex 1 11 -1
      vertex -1 11 0
      vertex 1 11 0
    endloop
  endfacet
  facet normal 0 1 0
    outer loop
      vertex -1 11 0
      vertex 1 11 -1
      vertex -1 11 -1
    endloop
  endfacet
  facet normal -1 0 0
    outer loop
      vertex -35.5 5 -1
      vertex -35.5 7 0
      vertex -35.5 7 -1
    endloop
  endfacet
  facet normal -1 -0 0
    outer loop
      vertex -35.5 7 0
      vertex -35.5 5 -1
      vertex -35.5 5 0
    endloop
  endfacet
  facet normal 0 0 1
    outer loop
      vertex 1 11 9
      vertex -1 11 9
      vertex 1 7 9
    endloop
  endfacet
  facet normal -0 0 1
    outer loop
      vertex 1 7 9
      vertex 34.4745 5 9
      vertex 34.2643 7 9
    endloop
  endfacet
  facet normal 0 0 1
    outer loop
      vertex -1 7 9
      vertex 1 7 9
      vertex -1 11 9
    endloop
  endfacet
  facet normal -0 0 1
    outer loop
      vertex -1 7 9
      vertex 34.4745 5 9
      vertex 1 7 9
    endloop
  endfacet
  facet normal 0 0 1
    outer loop
      vertex -34.4745 5 9
      vertex -1 7 9
      vertex -34.2643 7 9
    endloop
  endfacet
  facet normal 0 0 1
    outer loop
      vertex -1 7 9
      vertex -34.4745 5 9
      vertex 34.4745 5 9
    endloop
  endfacet
  facet normal 1 -0 0
    outer loop
      vertex 35.5 5 0
      vertex 35.5 7 -1
      vertex 35.5 7 0
    endloop
  endfacet
  facet normal 1 0 0
    outer loop
      vertex 35.5 7 -1
      vertex 35.5 5 0
      vertex 35.5 5 -1
    endloop
  endfacet
  facet normal 0 0 -1
    outer loop
      vertex 35.5 5 -1
      vertex 1 7 -1
      vertex 35.5 7 -1
    endloop
  endfacet
  facet normal 0 0 -1
    outer loop
      vertex 1 7 -1
      vertex -1 7 -1
      vertex 1 11 -1
    endloop
  endfacet
  facet normal 0 0 -1
    outer loop
      vertex 35.5 5 -1
      vertex -1 7 -1
      vertex 1 7 -1
    endloop
  endfacet
  facet normal 0 0 -1
    outer loop
      vertex -35.5 5 -1
      vertex -1 7 -1
      vertex 35.5 5 -1
    endloop
  endfacet
  facet normal -0 0 -1
    outer loop
      vertex -1 7 -1
      vertex -35.5 5 -1
      vertex -35.5 7 -1
    endloop
  endfacet
  facet normal -0 0 -1
    outer loop
      vertex 1 11 -1
      vertex -1 7 -1
      vertex -1 11 -1
    endloop
  endfacet
  facet normal 0 -1 0
    outer loop
      vertex -35.5 5 -1
      vertex -34.4745 5 0
      vertex -35.5 5 0
    endloop
  endfacet
  facet normal 0 -1 -0
    outer loop
      vertex -34.4745 5 0
      vertex -35.5 5 -1
      vertex 34.4745 5 0
    endloop
  endfacet
  facet normal 0 -1 0
    outer loop
      vertex 35.5 5 -1
      vertex 34.4745 5 0
      vertex -35.5 5 -1
    endloop
  endfacet
  facet normal 0 -1 0
    outer loop
      vertex 34.4745 5 0
      vertex 35.5 5 -1
      vertex 35.5 5 0
    endloop
  endfacet
  facet normal 0 -1 0
    outer loop
      vertex -34.4745 5 0
      vertex 34.4745 5 9
      vertex -34.4745 5 9
    endloop
  endfacet
  facet normal 0 -1 -0
    outer loop
      vertex 34.4745 5 9
      vertex -34.4745 5 0
      vertex 34.4745 5 0
    endloop
  endfacet
  facet normal 0 1 0
    outer loop
      vertex -1 7 9
      vertex -34.2643 7 0
      vertex -34.2643 7 9
    endloop
  endfacet
  facet normal 0 1 -0
    outer loop
      vertex -1 7 -1
      vertex -34.2643 7 0
      vertex -1 7 9
    endloop
  endfacet
  facet normal 0 1 0
    outer loop
      vertex -35.5 7 -1
      vertex -34.2643 7 0
      vertex -1 7 -1
    endloop
  endfacet
  facet normal 0 1 0
    outer loop
      vertex -34.2643 7 0
      vertex -35.5 7 -1
      vertex -35.5 7 0
    endloop
  endfacet
  facet normal 0 1 0
    outer loop
      vertex 35.5 7 0
      vertex 35.5 7 -1
      vertex 34.2643 7 0
    endloop
  endfacet
  facet normal 0 1 -0
    outer loop
      vertex 34.2643 7 0
      vertex 1 7 9
      vertex 34.2643 7 9
    endloop
  endfacet
  facet normal 0 1 0
    outer loop
      vertex 1 7 -1
      vertex 34.2643 7 0
      vertex 35.5 7 -1
    endloop
  endfacet
  facet normal 0 1 0
    outer loop
      vertex 34.2643 7 0
      vertex 1 7 -1
      vertex 1 7 9
    endloop
  endfacet
  facet normal -1 0 0
    outer loop
      vertex -1 7 -1
      vertex -1 11 0
      vertex -1 11 -1
    endloop
  endfacet
  facet normal -1 0 0
    outer loop
      vertex -1 7 9
      vertex -1 11 0
      vertex -1 7 -1
    endloop
  endfacet
  facet normal -1 0 0
    outer loop
      vertex -1 11 0
      vertex -1 7 9
      vertex -1 11 9
    endloop
  endfacet
  facet normal 1 -0 0
    outer loop
      vertex 1 7 9
      vertex 1 11 0
      vertex 1 11 9
    endloop
  endfacet
  facet normal 1 0 0
    outer loop
      vertex 1 7 -1
      vertex 1 11 0
      vertex 1 7 9
    endloop
  endfacet
  facet normal 1 0 0
    outer loop
      vertex 1 11 0
      vertex 1 7 -1
      vertex 1 11 -1
    endloop
  endfacet
  facet normal 1 -0 0
    outer loop
      vertex -10 13 10
      vertex -10 33 0
      vertex -10 33 10
    endloop
  endfacet
  facet normal 1 0 0
    outer loop
      vertex -10 33 0
      vertex -10 13 10
      vertex -10 13 0
    endloop
  endfacet
  facet normal -1 0 0
    outer loop
      vertex 10 13 0
      vertex 10 33 10
      vertex 10 33 0
    endloop
  endfacet
  facet normal -1 -0 0
    outer loop
      vertex 10 33 10
      vertex 10 13 0
      vertex 10 13 10
    endloop
  endfacet
  facet normal 0 1 -0
    outer loop
      vertex 10 13 0
      vertex -10 13 10
      vertex 10 13 10
    endloop
  endfacet
  facet normal 0 1 0
    outer loop
      vertex -10 13 10
      vertex 10 13 0
      vertex -10 13 0
    endloop
  endfacet
  facet normal 0 -1 0
    outer loop
      vertex -10 33 0
      vertex 10 33 10
      vertex -10 33 10
    endloop
  endfacet
  facet normal 0 -1 -0
    outer loop
      vertex 10 33 10
      vertex -10 33 0
      vertex 10 33 0
    endloop
  endfacet
  facet normal 0 -1 0
    outer loop
      vertex -34.8629 -15 0
      vertex -31.5329 -15 10
      vertex -34.8629 -15 10
    endloop
  endfacet
  facet normal 0 -1 -0
    outer loop
      vertex -31.5329 -15 10
      vertex -34.8629 -15 0
      vertex -31.5329 -15 0
    endloop
  endfacet
  facet normal 0 -1 0
    outer loop
      vertex 31.5329 -15 0
      vertex 34.8629 -15 10
      vertex 31.5329 -15 10
    endloop
  endfacet
  facet normal 0 -1 -0
    outer loop
      vertex 34.8629 -15 10
      vertex 31.5329 -15 0
      vertex 34.8629 -15 0
    endloop
  endfacet
endsolid OpenSCAD_Model
